<svg width="69" height="32" viewBox="0 0 69 32" fill="none" xmlns="http://www.w3.org/2000/svg">
<path d="M9 17H14M9 13H19" stroke="white" stroke-width="2" stroke-linecap="round"/>
<path d="M9.9987 4.66675C7.9243 4.72897 6.68752 4.95987 5.83173 5.81644C4.66016 6.98911 4.66016 8.87648 4.66016 12.6512V21.3259C4.66016 25.1007 4.66016 26.9881 5.83173 28.1607C7.0033 29.3334 8.88893 29.3334 12.6602 29.3334H19.3268C23.098 29.3334 24.9836 29.3334 26.1552 28.1607C27.3268 26.9881 27.3268 25.1007 27.3268 21.3259V12.6512C27.3268 8.87648 27.3268 6.98911 26.1552 5.81645C25.2995 4.95987 24.0627 4.72897 21.9883 4.66675" stroke="#FF5700" stroke-width="2"/>
<path d="M9.99609 5.00008C9.99609 3.71141 11.0408 2.66675 12.3294 2.66675H19.6628C20.9514 2.66675 21.9961 3.71141 21.9961 5.00008C21.9961 6.28875 20.9514 7.33341 19.6628 7.33341H12.3294C11.0408 7.33341 9.99609 6.28875 9.99609 5.00008Z" stroke="#FF5700" stroke-width="2" stroke-linejoin="round"/>
<path d="M24.1598 21.1335C24.1394 20.5796 23.6743 20.1471 23.1188 20.1659C22.8726 20.1745 22.6385 20.2753 22.4607 20.4445C21.6778 19.9112 20.7581 19.6188 19.8127 19.5983L20.2588 17.453L21.7307 17.7624C21.7716 18.1402 22.1102 18.4138 22.4879 18.3727C22.8657 18.3317 23.1393 17.9932 23.0982 17.6154C23.0571 17.2376 22.7187 16.9641 22.3409 17.0052C22.1238 17.0274 21.9289 17.1539 21.8213 17.342L20.1358 17.0052C20.0213 16.9795 19.9067 17.0514 19.8811 17.1677C19.8811 17.1693 19.8811 17.1693 19.8811 17.171L19.3734 19.5574C18.4161 19.5728 17.4845 19.8668 16.6913 20.4036C16.2878 20.0241 15.6519 20.0429 15.2725 20.448C14.893 20.8515 14.9118 21.4874 15.3169 21.8669C15.3956 21.9404 15.4861 22.0036 15.587 22.0481C15.5801 22.149 15.5801 22.2498 15.587 22.3507C15.587 23.8909 17.3819 25.1439 19.5956 25.1439C21.8092 25.1439 23.6042 23.8926 23.6042 22.3507C23.611 22.2498 23.611 22.149 23.6042 22.0481C23.9496 21.8754 24.1667 21.5198 24.1598 21.1335ZM17.2827 21.8224C17.2827 21.4429 17.5922 21.1335 17.9717 21.1335C18.3511 21.1335 18.6606 21.4429 18.6606 21.8224C18.6606 22.2019 18.3511 22.5113 17.9717 22.5113C17.5905 22.5078 17.2827 22.2019 17.2827 21.8224ZM21.2777 23.7403V23.713C20.7888 24.0805 20.1905 24.2685 19.5785 24.243C18.9664 24.2687 18.3682 24.0805 17.8792 23.713C17.8143 23.6343 17.8262 23.5164 17.9049 23.4515C17.9732 23.3951 18.0707 23.3951 18.1408 23.4515C18.5545 23.7541 19.0589 23.908 19.5716 23.884C20.0845 23.9113 20.5905 23.7643 21.0092 23.4653C21.0844 23.3917 21.2074 23.3934 21.2811 23.4686C21.3546 23.5438 21.3529 23.6668 21.2777 23.7403ZM21.1837 22.5608C21.1718 22.5608 21.1616 22.5608 21.1495 22.5608L21.1547 22.5352C20.7752 22.5352 20.4658 22.2257 20.4658 21.8462C20.4658 21.4668 20.7752 21.1573 21.1547 21.1573C21.5342 21.1573 21.8436 21.4668 21.8436 21.8462C21.8589 22.2258 21.5632 22.5454 21.1837 22.5608Z" fill="#FF5700"/>
<path d="M9 21H11" stroke="white" stroke-width="2" stroke-linecap="round"/>
<path d="M34.84 14C34.752 14 34.696 13.96 34.672 13.88L33.748 10.568C33.732 10.536 33.712 10.52 33.688 10.52H33.28C33.24 10.52 33.22 10.54 33.22 10.58V13.856C33.22 13.896 33.204 13.932 33.172 13.964C33.148 13.988 33.116 14 33.076 14H31.672C31.632 14 31.596 13.988 31.564 13.964C31.54 13.932 31.528 13.896 31.528 13.856V5.744C31.528 5.704 31.54 5.672 31.564 5.648C31.596 5.616 31.632 5.6 31.672 5.6H34.096C34.536 5.6 34.928 5.708 35.272 5.924C35.616 6.132 35.88 6.428 36.064 6.812C36.256 7.196 36.352 7.636 36.352 8.132C36.352 8.604 36.26 9.02 36.076 9.38C35.9 9.74 35.652 10.02 35.332 10.22C35.316 10.228 35.304 10.24 35.296 10.256C35.288 10.264 35.288 10.276 35.296 10.292L36.4 13.832L36.412 13.88C36.412 13.96 36.368 14 36.28 14H34.84ZM33.28 7.052C33.24 7.052 33.22 7.072 33.22 7.112V9.164C33.22 9.204 33.24 9.224 33.28 9.224H33.82C34.068 9.224 34.268 9.128 34.42 8.936C34.58 8.736 34.66 8.472 34.66 8.144C34.66 7.808 34.58 7.544 34.42 7.352C34.268 7.152 34.068 7.052 33.82 7.052H33.28ZM41.5564 11.3C41.5564 11.34 41.5404 11.376 41.5084 11.408C41.4844 11.432 41.4524 11.444 41.4124 11.444H38.7724C38.7324 11.444 38.7124 11.464 38.7124 11.504V11.948C38.7124 12.148 38.7644 12.316 38.8684 12.452C38.9804 12.58 39.1204 12.644 39.2884 12.644C39.4404 12.644 39.5644 12.596 39.6604 12.5C39.7564 12.396 39.8204 12.268 39.8524 12.116C39.8764 12.036 39.9284 11.996 40.0084 11.996L41.3884 12.068C41.4284 12.068 41.4604 12.084 41.4844 12.116C41.5164 12.14 41.5284 12.176 41.5204 12.224C41.4644 12.84 41.2484 13.308 40.8724 13.628C40.5044 13.94 39.9764 14.096 39.2884 14.096C38.5764 14.096 38.0204 13.92 37.6204 13.568C37.2204 13.208 37.0204 12.712 37.0204 12.08V9.752C37.0204 9.144 37.2204 8.656 37.6204 8.288C38.0284 7.92 38.5844 7.736 39.2884 7.736C39.9924 7.736 40.5444 7.92 40.9444 8.288C41.3524 8.656 41.5564 9.144 41.5564 9.752V11.3ZM39.2884 9.188C39.1204 9.188 38.9804 9.252 38.8684 9.38C38.7644 9.508 38.7124 9.672 38.7124 9.872V10.34C38.7124 10.38 38.7324 10.4 38.7724 10.4H39.8044C39.8444 10.4 39.8644 10.38 39.8644 10.34V9.872C39.8644 9.672 39.8084 9.508 39.6964 9.38C39.5924 9.252 39.4564 9.188 39.2884 9.188ZM45.067 5.744C45.067 5.704 45.079 5.672 45.103 5.648C45.135 5.616 45.171 5.6 45.211 5.6H46.615C46.655 5.6 46.687 5.616 46.711 5.648C46.743 5.672 46.759 5.704 46.759 5.744V13.856C46.759 13.896 46.743 13.932 46.711 13.964C46.687 13.988 46.655 14 46.615 14H45.211C45.171 14 45.135 13.988 45.103 13.964C45.079 13.932 45.067 13.896 45.067 13.856V13.664C45.067 13.64 45.059 13.628 45.043 13.628C45.027 13.62 45.011 13.624 44.995 13.64C44.723 13.944 44.363 14.096 43.915 14.096C43.363 14.096 42.947 13.92 42.667 13.568C42.387 13.208 42.247 12.712 42.247 12.08V9.752C42.247 9.104 42.387 8.608 42.667 8.264C42.955 7.912 43.371 7.736 43.915 7.736C44.091 7.736 44.275 7.772 44.467 7.844C44.659 7.908 44.835 8.028 44.995 8.204C45.011 8.22 45.027 8.228 45.043 8.228C45.059 8.22 45.067 8.204 45.067 8.18V5.744ZM44.503 12.644C44.647 12.644 44.771 12.596 44.875 12.5C44.979 12.404 45.043 12.276 45.067 12.116V9.716C45.043 9.556 44.979 9.428 44.875 9.332C44.771 9.236 44.647 9.188 44.503 9.188C44.335 9.188 44.199 9.252 44.095 9.38C43.991 9.508 43.939 9.672 43.939 9.872V11.96C43.939 12.16 43.991 12.324 44.095 12.452C44.199 12.58 44.335 12.644 44.503 12.644ZM49.9068 14.096C49.4428 14.096 49.0348 14.004 48.6828 13.82C48.3308 13.636 48.0588 13.38 47.8668 13.052C47.6748 12.716 47.5788 12.332 47.5788 11.9V11.552C47.5788 11.512 47.5908 11.48 47.6147 11.456C47.6468 11.424 47.6828 11.408 47.7228 11.408H49.1028C49.1428 11.408 49.1748 11.424 49.1988 11.456C49.2308 11.48 49.2468 11.512 49.2468 11.552V11.816C49.2468 12.064 49.3108 12.264 49.4388 12.416C49.5668 12.568 49.7268 12.644 49.9188 12.644C50.1108 12.644 50.2708 12.572 50.3988 12.428C50.5268 12.284 50.5908 12.096 50.5908 11.864C50.5908 11.624 50.5108 11.42 50.3508 11.252C50.1908 11.076 49.8788 10.82 49.4148 10.484C49.0148 10.196 48.6908 9.94 48.4428 9.716C48.1948 9.492 47.9828 9.216 47.8068 8.888C47.6308 8.56 47.5428 8.18 47.5428 7.748C47.5428 7.068 47.7548 6.524 48.1788 6.116C48.6028 5.708 49.1628 5.504 49.8588 5.504C50.5628 5.504 51.1268 5.716 51.5508 6.14C51.9828 6.564 52.1988 7.12 52.1988 7.808V8.096C52.1988 8.136 52.1828 8.172 52.1508 8.204C52.1268 8.228 52.0948 8.24 52.0548 8.24H50.6748C50.6348 8.24 50.5988 8.228 50.5668 8.204C50.5428 8.172 50.5308 8.136 50.5308 8.096V7.772C50.5308 7.524 50.4668 7.328 50.3388 7.184C50.2188 7.032 50.0588 6.956 49.8588 6.956C49.6668 6.956 49.5108 7.028 49.3908 7.172C49.2708 7.308 49.2108 7.5 49.2108 7.748C49.2108 7.988 49.2868 8.2 49.4388 8.384C49.5908 8.568 49.8908 8.824 50.3388 9.152C50.8348 9.52 51.2068 9.82 51.4548 10.052C51.7108 10.276 51.9068 10.528 52.0428 10.808C52.1868 11.08 52.2588 11.408 52.2588 11.792C52.2588 12.496 52.0428 13.056 51.6108 13.472C51.1788 13.888 50.6108 14.096 49.9068 14.096ZM55.7668 7.976C55.7668 7.936 55.7788 7.904 55.8028 7.88C55.8348 7.848 55.8708 7.832 55.9108 7.832H57.3148C57.3548 7.832 57.3868 7.848 57.4108 7.88C57.4428 7.904 57.4588 7.936 57.4588 7.976V13.856C57.4588 13.896 57.4428 13.932 57.4108 13.964C57.3868 13.988 57.3548 14 57.3148 14H55.9108C55.8708 14 55.8348 13.988 55.8028 13.964C55.7788 13.932 55.7668 13.896 55.7668 13.856V13.652C55.7668 13.628 55.7588 13.612 55.7428 13.604C55.7268 13.596 55.7108 13.604 55.6948 13.628C55.5748 13.796 55.4228 13.916 55.2388 13.988C55.0628 14.052 54.8548 14.084 54.6148 14.084C54.1348 14.084 53.7388 13.94 53.4268 13.652C53.1148 13.356 52.9588 12.904 52.9588 12.296V7.976C52.9588 7.936 52.9708 7.904 52.9948 7.88C53.0268 7.848 53.0628 7.832 53.1028 7.832H54.5068C54.5468 7.832 54.5788 7.848 54.6028 7.88C54.6348 7.904 54.6508 7.936 54.6508 7.976V11.924C54.6508 12.156 54.6948 12.336 54.7828 12.464C54.8788 12.584 55.0148 12.644 55.1908 12.644C55.3668 12.644 55.5068 12.576 55.6108 12.44C55.7148 12.304 55.7668 12.12 55.7668 11.888V7.976ZM61.218 7.736C61.762 7.736 62.174 7.912 62.454 8.264C62.742 8.608 62.886 9.104 62.886 9.752V12.08C62.886 12.712 62.746 13.208 62.466 13.568C62.186 13.92 61.77 14.096 61.218 14.096C60.77 14.096 60.41 13.944 60.138 13.64C60.122 13.624 60.106 13.62 60.09 13.628C60.074 13.628 60.066 13.64 60.066 13.664V13.856C60.066 13.896 60.05 13.932 60.018 13.964C59.994 13.988 59.962 14 59.922 14H58.518C58.478 14 58.442 13.988 58.41 13.964C58.386 13.932 58.374 13.896 58.374 13.856V5.744C58.374 5.704 58.386 5.672 58.41 5.648C58.442 5.616 58.478 5.6 58.518 5.6H59.922C59.962 5.6 59.994 5.616 60.018 5.648C60.05 5.672 60.066 5.704 60.066 5.744V8.18C60.066 8.196 60.074 8.204 60.09 8.204C60.122 8.204 60.154 8.184 60.186 8.144C60.458 7.872 60.802 7.736 61.218 7.736ZM61.194 9.872C61.194 9.672 61.142 9.508 61.038 9.38C60.934 9.252 60.798 9.188 60.63 9.188C60.486 9.188 60.362 9.236 60.258 9.332C60.154 9.428 60.09 9.556 60.066 9.716V12.116C60.09 12.276 60.154 12.404 60.258 12.5C60.362 12.596 60.486 12.644 60.63 12.644C60.798 12.644 60.934 12.58 61.038 12.452C61.142 12.324 61.194 12.16 61.194 11.96V9.872ZM65.7817 14.084C65.1017 14.084 64.5577 13.924 64.1497 13.604C63.7497 13.276 63.5497 12.84 63.5497 12.296V12.212C63.5497 12.172 63.5617 12.14 63.5857 12.116C63.6177 12.084 63.6537 12.068 63.6937 12.068H65.0137C65.0537 12.068 65.0857 12.084 65.1097 12.116C65.1417 12.14 65.1577 12.172 65.1577 12.212V12.248C65.1577 12.416 65.2177 12.556 65.3377 12.668C65.4577 12.772 65.6057 12.824 65.7817 12.824C65.9417 12.824 66.0657 12.78 66.1537 12.692C66.2497 12.596 66.2977 12.476 66.2977 12.332C66.2977 12.156 66.2217 12.02 66.0697 11.924C65.9177 11.82 65.7457 11.736 65.5537 11.672C65.3697 11.6 65.2417 11.552 65.1697 11.528C64.7297 11.368 64.3577 11.148 64.0537 10.868C63.7577 10.58 63.6097 10.168 63.6097 9.632C63.6097 9.048 63.8017 8.588 64.1857 8.252C64.5697 7.916 65.0817 7.748 65.7217 7.748C66.3857 7.748 66.9097 7.924 67.2937 8.276C67.6857 8.628 67.8817 9.104 67.8817 9.704C67.8817 9.744 67.8657 9.78 67.8337 9.812C67.8097 9.836 67.7777 9.848 67.7377 9.848H66.4537C66.4137 9.848 66.3777 9.836 66.3457 9.812C66.3217 9.78 66.3097 9.744 66.3097 9.704V9.608C66.3097 9.448 66.2577 9.32 66.1537 9.224C66.0577 9.12 65.9297 9.068 65.7697 9.068C65.6017 9.068 65.4697 9.124 65.3737 9.236C65.2777 9.34 65.2297 9.464 65.2297 9.608C65.2297 9.8 65.3097 9.952 65.4697 10.064C65.6377 10.168 65.8897 10.284 66.2257 10.412C66.5697 10.54 66.8617 10.672 67.1017 10.808C67.3497 10.936 67.5617 11.124 67.7377 11.372C67.9137 11.612 68.0017 11.916 68.0017 12.284C68.0017 12.836 67.7977 13.276 67.3897 13.604C66.9897 13.924 66.4537 14.084 65.7817 14.084Z" fill="white"/>
<path d="M37.1078 27C37.0444 27 36.9874 26.981 36.9368 26.943C36.8988 26.8923 36.8798 26.8353 36.8798 26.772V16.265C36.8798 16.2017 36.8988 16.151 36.9368 16.113C36.9874 16.0623 37.0444 16.037 37.1078 16.037H39.3308C39.3941 16.037 39.4448 16.0623 39.4828 16.113C39.5334 16.151 39.5588 16.2017 39.5588 16.265V24.606C39.5588 24.6693 39.5904 24.701 39.6538 24.701H43.2638C43.3271 24.701 43.3778 24.7263 43.4158 24.777C43.4664 24.815 43.4918 24.8657 43.4918 24.929V26.772C43.4918 26.8353 43.4664 26.8923 43.4158 26.943C43.3778 26.981 43.3271 27 43.2638 27H37.1078ZM44.6781 27C44.6147 27 44.5577 26.981 44.5071 26.943C44.4691 26.8923 44.4501 26.8353 44.4501 26.772V16.265C44.4501 16.2017 44.4691 16.151 44.5071 16.113C44.5577 16.0623 44.6147 16.037 44.6781 16.037H46.9011C46.9644 16.037 47.0151 16.0623 47.0531 16.113C47.1037 16.151 47.1291 16.2017 47.1291 16.265V26.772C47.1291 26.8353 47.1037 26.8923 47.0531 26.943C47.0151 26.981 46.9644 27 46.9011 27H44.6781ZM51.8385 27.133C51.1545 27.133 50.5465 27.0127 50.0145 26.772C49.4952 26.5187 49.0899 26.1703 48.7985 25.727C48.5072 25.2837 48.3615 24.7833 48.3615 24.226V23.846C48.3615 23.7827 48.3805 23.732 48.4185 23.694C48.4692 23.6433 48.5262 23.618 48.5895 23.618H50.7745C50.8379 23.618 50.8885 23.6433 50.9265 23.694C50.9772 23.732 51.0025 23.7827 51.0025 23.846V23.903C51.0025 24.1943 51.0785 24.4287 51.2305 24.606C51.3825 24.7707 51.5915 24.853 51.8575 24.853C52.0982 24.853 52.2945 24.777 52.4465 24.625C52.5985 24.4603 52.6745 24.2513 52.6745 23.998C52.6745 23.77 52.5479 23.542 52.2945 23.314C52.0539 23.086 51.6675 22.7883 51.1355 22.421C50.5655 22.0157 50.2045 21.7497 50.0525 21.623C49.4699 21.1543 49.0329 20.73 48.7415 20.35C48.4502 19.9573 48.3045 19.495 48.3045 18.963C48.3045 18.0383 48.6212 17.2973 49.2545 16.74C49.8879 16.1827 50.7302 15.904 51.7815 15.904C52.8329 15.904 53.6752 16.189 54.3085 16.759C54.9545 17.3163 55.2775 18.051 55.2775 18.963V19.153C55.2775 19.2163 55.2522 19.2733 55.2015 19.324C55.1635 19.362 55.1129 19.381 55.0495 19.381H52.8645C52.8012 19.381 52.7442 19.362 52.6935 19.324C52.6555 19.2733 52.6365 19.2163 52.6365 19.153V19.096C52.6365 18.83 52.5542 18.6147 52.3895 18.45C52.2375 18.2853 52.0349 18.203 51.7815 18.203C51.5282 18.203 51.3255 18.2727 51.1735 18.412C51.0215 18.5387 50.9455 18.7223 50.9455 18.963C50.9455 19.2417 51.0595 19.4887 51.2875 19.704C51.5282 19.9193 51.9335 20.2107 52.5035 20.578C53.1369 20.9833 53.6372 21.3317 54.0045 21.623C54.3845 21.9017 54.7075 22.2437 54.9735 22.649C55.2395 23.0543 55.3725 23.5167 55.3725 24.036C55.3725 24.9733 55.0432 25.727 54.3845 26.297C53.7385 26.8543 52.8899 27.133 51.8385 27.133ZM63.2963 16.037C63.3596 16.037 63.4103 16.0623 63.4483 16.113C63.499 16.151 63.5243 16.2017 63.5243 16.265V18.108C63.5243 18.1713 63.499 18.2283 63.4483 18.279C63.4103 18.317 63.3596 18.336 63.2963 18.336H61.1683C61.105 18.336 61.0733 18.3677 61.0733 18.431V26.772C61.0733 26.8353 61.048 26.8923 60.9973 26.943C60.9593 26.981 60.9086 27 60.8453 27H58.6223C58.559 27 58.502 26.981 58.4513 26.943C58.4133 26.8923 58.3943 26.8353 58.3943 26.772V18.431C58.3943 18.3677 58.3626 18.336 58.2993 18.336H56.2093C56.146 18.336 56.089 18.317 56.0383 18.279C56.0003 18.2283 55.9813 18.1713 55.9813 18.108V16.265C55.9813 16.2017 56.0003 16.151 56.0383 16.113C56.089 16.0623 56.146 16.037 56.2093 16.037H63.2963Z" fill="#FF5700"/>
</svg>